<svg xmlns="http://www.w3.org/2000/svg" viewBox="0 0 200 200">
  <defs>
    <path id="p" d="M100 100 C 90 64 90 30 100 6 C 110 30 110 64 100 100 Z"/>
    <path id="q" d="M100 100 C 96 80 96 60 100 50 C 104 60 104 80 100 100 Z"/>
  </defs>
  <g fill="#4B5D34">
    <use href="#p" transform="rotate(0 100 100)"/>
    <use href="#p" transform="rotate(30 100 100)"/>
    <use href="#p" transform="rotate(60 100 100)"/>
    <use href="#p" transform="rotate(90 100 100)"/>
    <use href="#p" transform="rotate(120 100 100)"/>
    <use href="#p" transform="rotate(150 100 100)"/>
    <use href="#p" transform="rotate(180 100 100)"/>
    <use href="#p" transform="rotate(210 100 100)"/>
    <use href="#p" transform="rotate(240 100 100)"/>
    <use href="#p" transform="rotate(270 100 100)"/>
    <use href="#p" transform="rotate(300 100 100)"/>
    <use href="#p" transform="rotate(330 100 100)"/>
    <use href="#q" transform="rotate(15 100 100)"/>
    <use href="#q" transform="rotate(45 100 100)"/>
    <use href="#q" transform="rotate(75 100 100)"/>
    <use href="#q" transform="rotate(105 100 100)"/>
    <use href="#q" transform="rotate(135 100 100)"/>
    <use href="#q" transform="rotate(165 100 100)"/>
    <use href="#q" transform="rotate(195 100 100)"/>
    <use href="#q" transform="rotate(225 100 100)"/>
    <use href="#q" transform="rotate(255 100 100)"/>
    <use href="#q" transform="rotate(285 100 100)"/>
    <use href="#q" transform="rotate(315 100 100)"/>
    <use href="#q" transform="rotate(345 100 100)"/>
    <circle cx="100" cy="100" r="13"/>
  </g>
</svg>
